<?xml version="1.0" encoding="utf-8"?>
<!-- Generator: Adobe Illustrator 24.1.1, SVG Export Plug-In . SVG Version: 6.00 Build 0)  -->
<svg version="1.1" id="Layer_1" xmlns="http://www.w3.org/2000/svg" xmlns:xlink="http://www.w3.org/1999/xlink" x="0px" y="0px"
	 viewBox="0 0 195.3 206.6" style="enable-background:new 0 0 195.3 206.6;" xml:space="preserve">
<style type="text/css">
	.st0{fill:none;}
	.st1{fill:#FFFFFF;}
</style>
<g>
	<rect x="144.1" y="148" class="st0" width="5.3" height="5.2"/>
	<rect x="158.4" y="181.4" class="st0" width="5.3" height="5.2"/>
	<rect x="158.4" y="164.7" class="st0" width="5.3" height="5.3"/>
	<rect x="158.4" y="148" class="st0" width="5.3" height="5.2"/>
	<path class="st0" d="M141.8,106h22.5c1.3-5.6,2-11.4,2-17.4c0-42.8-34.8-77.7-77.7-77.7C45.8,11,11,45.8,11,88.6
		c0,42.8,34.8,77.6,77.6,77.6c14.5,0,28.1-4,39.7-11c0,0,0,0,0,0v-35.9C128.4,112.1,134.4,106,141.8,106z M95.3,129.5v5.5
		c0,3.7-3,6.7-6.7,6.7c-3.7,0-6.7-3-6.7-6.7v-5.6c-12.5-2.6-21.8-12.1-21.8-23.4c0-3.7,3-6.7,6.7-6.7s6.7,3,6.7,6.7
		c0,5.8,7,10.7,15.3,10.7c8.3,0,15.3-4.9,15.3-10.7c0-2.8-2.8-10.6-15.5-10.6c-20,0-29-14.2-29-24.2c0-11.4,9.5-21,22.2-23.5v-5.5
		c0-3.7,3-6.7,6.7-6.7c3.7,0,6.7,3,6.7,6.7v5.5c12.5,2.6,21.9,12.1,21.9,23.4c0,3.7-3,6.7-6.7,6.7c-3.7,0-6.7-3-6.7-6.7
		c0-5.8-7-10.7-15.3-10.7c-8.3,0-15.3,4.9-15.3,10.7c0,2.3,2.6,10.8,15.5,10.8c21,0,28.9,14.7,28.9,24
		C117.6,117.5,108,127,95.3,129.5z"/>
	<rect x="172.8" y="181.4" class="st0" width="5.2" height="5.2"/>
	<rect x="144.1" y="164.7" class="st0" width="5.3" height="5.3"/>
	<rect x="144.1" y="181.4" class="st0" width="5.3" height="5.2"/>
	<path class="st0" d="M180.3,109.5h-6.8c0,0,0,0,0,0h-10.1c0,0,0,0,0,0h-21.6c-5.5,0-10,4.5-10,10v72.1c0,5.5,4.5,10,10,10h38.5
		c5.5,0,10-4.5,10-10v-72.1C190.3,114,185.8,109.5,180.3,109.5z M152.5,188.2c0,0.9-0.7,1.5-1.5,1.5h-8.3c-0.9,0-1.6-0.7-1.6-1.5
		v-8.3c0-0.9,0.7-1.6,1.6-1.6h8.3c0.9,0,1.5,0.7,1.5,1.6V188.2z M152.5,171.5c0,0.9-0.7,1.5-1.5,1.5h-8.3c-0.9,0-1.6-0.7-1.6-1.5
		v-8.3c0-0.9,0.7-1.6,1.6-1.6h8.3c0.9,0,1.5,0.7,1.5,1.6V171.5z M152.5,154.8c0,0.9-0.7,1.6-1.5,1.6h-8.3c-0.9,0-1.6-0.7-1.6-1.6
		v-8.4c0-0.3,0.1-0.5,0.2-0.7c0.2-0.3,0.5-0.6,0.8-0.8c0.2-0.1,0.4-0.1,0.6-0.1h8.3c0.9,0,1.5,0.7,1.5,1.6V154.8z M166.8,188.2
		c0,0.9-0.7,1.5-1.6,1.5h-8.3c-0.9,0-1.6-0.7-1.6-1.5v-8.3c0-0.9,0.7-1.6,1.6-1.6h8.3c0.9,0,1.6,0.7,1.6,1.6V188.2z M166.8,171.5
		c0,0.9-0.7,1.5-1.6,1.5h-8.3c-0.9,0-1.6-0.7-1.6-1.5v-8.3c0-0.9,0.7-1.6,1.6-1.6h8.3c0.9,0,1.6,0.7,1.6,1.6V171.5z M166.8,154.8
		c0,0.9-0.7,1.6-1.6,1.6h-8.3c-0.9,0-1.6-0.7-1.6-1.6v-8.4c0-0.9,0.7-1.6,1.6-1.6h8.3c0.9,0,1.6,0.7,1.6,1.6V154.8z M181.1,188.2
		c0,0.9-0.7,1.5-1.5,1.5h-8.3c-0.9,0-1.5-0.7-1.5-1.5v-8.3c0-0.9,0.7-1.6,1.5-1.6h8.3c0.9,0,1.5,0.7,1.5,1.6V188.2z M181.1,171.5
		c0,0.9-0.7,1.5-1.5,1.5h-8.3c-0.9,0-1.5-0.7-1.5-1.5v-8.3c0-0.9,0.7-1.6,1.5-1.6h8.3c0.9,0,1.5,0.7,1.5,1.6V171.5z M181.1,154.8
		c0,0.9-0.7,1.6-1.5,1.6h-8.3c-0.9,0-1.5-0.7-1.5-1.6v-8.4c0-0.9,0.7-1.6,1.5-1.6h8.3c0.9,0,1.5,0.7,1.5,1.6V154.8z M181.1,135.7
		c0,0.9-0.7,1.6-1.5,1.6h-37c-0.9,0-1.6-0.7-1.6-1.6v-13.1c0-0.9,0.7-1.6,1.6-1.6h37c0.9,0,1.5,0.7,1.5,1.6V135.7z"/>
	<rect x="172.8" y="164.7" class="st0" width="5.2" height="5.3"/>
	<rect x="144.1" y="124.1" class="st0" width="33.9" height="10"/>
	<rect x="172.8" y="148" class="st0" width="5.2" height="5.2"/>
	<path class="st1" d="M180.3,106h-6c1.1-5.7,1.7-11.5,1.7-17.4c0-11.8-2.3-23.2-6.9-34c-4.4-10.4-10.7-19.8-18.7-27.8
		c-8-8-17.4-14.3-27.8-18.7c-10.8-4.6-22.2-6.9-34-6.9c-11.8,0-23.2,2.3-34,6.9c-10.4,4.4-19.8,10.7-27.8,18.7
		c-8,8-14.3,17.4-18.7,27.8c-4.6,10.8-6.9,22.2-6.9,34c0,11.8,2.3,23.3,6.9,34c4.4,10.4,10.7,19.8,18.7,27.8
		c8,8,17.4,14.3,27.8,18.7c10.8,4.6,22.2,6.9,34,6.9c11.8,0,23.2-2.3,34-6.9c1.9-0.8,3.8-1.7,5.7-2.7c0,0,0,0,0,0v25.1
		c0,7.4,6,13.4,13.4,13.4h38.5c7.4,0,13.4-6,13.4-13.4v-72.1C193.7,112.1,187.7,106,180.3,106z M128.4,155.3
		c-11.6,7-25.2,11-39.7,11c-42.8,0-77.6-34.8-77.6-77.6C11,45.8,45.8,11,88.6,11c42.8,0,77.7,34.8,77.7,77.7c0,6-0.7,11.8-2,17.4
		h-22.5c-7.4,0-13.4,6-13.4,13.4L128.4,155.3C128.4,155.3,128.4,155.3,128.4,155.3z M190.3,191.6c0,5.5-4.5,10-10,10h-38.5
		c-5.5,0-10-4.5-10-10v-72.1c0-5.5,4.5-10,10-10h21.6c0,0,0,0,0,0h10.1c0,0,0,0,0,0h6.8c5.5,0,10,4.5,10,10V191.6z"/>
	<path class="st1" d="M179.5,121h-37c-0.9,0-1.6,0.7-1.6,1.6v13.1c0,0.9,0.7,1.6,1.6,1.6h37c0.9,0,1.5-0.7,1.5-1.6v-13.1
		C181.1,121.7,180.4,121,179.5,121z M178,134.2h-33.9v-10H178V134.2z"/>
	<path class="st1" d="M150.9,144.9h-8.3c-0.2,0-0.4,0-0.6,0.1c-0.4,0.1-0.7,0.4-0.8,0.8c-0.1,0.2-0.2,0.4-0.2,0.7v8.4
		c0,0.9,0.7,1.6,1.6,1.6h8.3c0.9,0,1.5-0.7,1.5-1.6v-8.4C152.5,145.6,151.8,144.9,150.9,144.9z M149.4,153.2h-5.3V148h5.3V153.2z"/>
	<path class="st1" d="M165.2,144.9h-8.3c-0.9,0-1.6,0.7-1.6,1.6v8.4c0,0.9,0.7,1.6,1.6,1.6h8.3c0.9,0,1.6-0.7,1.6-1.6v-8.4
		C166.8,145.6,166.1,144.9,165.2,144.9z M163.7,153.2h-5.3V148h5.3V153.2z"/>
	<path class="st1" d="M179.5,144.9h-8.3c-0.9,0-1.5,0.7-1.5,1.6v8.4c0,0.9,0.7,1.6,1.5,1.6h8.3c0.9,0,1.5-0.7,1.5-1.6v-8.4
		C181.1,145.6,180.4,144.9,179.5,144.9z M178,153.2h-5.2V148h5.2V153.2z"/>
	<path class="st1" d="M150.9,161.6h-8.3c-0.9,0-1.6,0.7-1.6,1.6v8.3c0,0.9,0.7,1.5,1.6,1.5h8.3c0.9,0,1.5-0.7,1.5-1.5v-8.3
		C152.5,162.3,151.8,161.6,150.9,161.6z M149.4,169.9h-5.3v-5.3h5.3V169.9z"/>
	<path class="st1" d="M165.2,161.6h-8.3c-0.9,0-1.6,0.7-1.6,1.6v8.3c0,0.9,0.7,1.5,1.6,1.5h8.3c0.9,0,1.6-0.7,1.6-1.5v-8.3
		C166.8,162.3,166.1,161.6,165.2,161.6z M163.7,169.9h-5.3v-5.3h5.3V169.9z"/>
	<path class="st1" d="M179.5,161.6h-8.3c-0.9,0-1.5,0.7-1.5,1.6v8.3c0,0.9,0.7,1.5,1.5,1.5h8.3c0.9,0,1.5-0.7,1.5-1.5v-8.3
		C181.1,162.3,180.4,161.6,179.5,161.6z M178,169.9h-5.2v-5.3h5.2V169.9z"/>
	<path class="st1" d="M150.9,178.3h-8.3c-0.9,0-1.6,0.7-1.6,1.6v8.3c0,0.9,0.7,1.5,1.6,1.5h8.3c0.9,0,1.5-0.7,1.5-1.5v-8.3
		C152.5,179,151.8,178.3,150.9,178.3z M149.4,186.7h-5.3v-5.2h5.3V186.7z"/>
	<path class="st1" d="M165.2,178.3h-8.3c-0.9,0-1.6,0.7-1.6,1.6v8.3c0,0.9,0.7,1.5,1.6,1.5h8.3c0.9,0,1.6-0.7,1.6-1.5v-8.3
		C166.8,179,166.1,178.3,165.2,178.3z M163.7,186.7h-5.3v-5.2h5.3V186.7z"/>
	<path class="st1" d="M179.5,178.3h-8.3c-0.9,0-1.5,0.7-1.5,1.6v8.3c0,0.9,0.7,1.5,1.5,1.5h8.3c0.9,0,1.5-0.7,1.5-1.5v-8.3
		C181.1,179,180.4,178.3,179.5,178.3z M178,186.7h-5.2v-5.2h5.2V186.7z"/>
	<path class="st1" d="M88.7,82c-12.9,0-15.5-8.5-15.5-10.8c0-5.8,7-10.7,15.3-10.7c8.3,0,15.3,4.9,15.3,10.7c0,3.7,3,6.7,6.7,6.7
		c3.7,0,6.7-3,6.7-6.7c0-11.3-9.3-20.8-21.9-23.4v-5.5c0-3.7-3-6.7-6.7-6.7c-3.7,0-6.7,3-6.7,6.7v5.5c-12.7,2.5-22.2,12.1-22.2,23.5
		c0,10,9,24.2,29,24.2c12.6,0,15.5,7.9,15.5,10.6c0,5.8-7,10.7-15.3,10.7c-8.3,0-15.3-4.9-15.3-10.7c0-3.7-3-6.7-6.7-6.7
		s-6.7,3-6.7,6.7c0,11.3,9.3,20.8,21.8,23.4v5.6c0,3.7,3,6.7,6.7,6.7c3.7,0,6.7-3,6.7-6.7v-5.5c12.7-2.5,22.2-12.1,22.2-23.5
		C117.6,96.7,109.7,82,88.7,82z"/>
</g>
</svg>
